<svg width="40" height="40" viewBox="0 0 40 40" fill="none" xmlns="http://www.w3.org/2000/svg">
<rect width="40" height="40" rx="20" fill="#B798C1"/>
<path fill-rule="evenodd" clip-rule="evenodd" d="M20.8897 11.8856C22.1814 10.0091 23.9769 10 23.9769 10C23.9769 10 24.2439 11.7643 22.9607 13.464C21.5907 15.2787 20.0333 14.982 20.0333 14.982C20.0333 14.982 19.7409 13.5546 20.8897 11.8856Z" fill="#121212"/>
<path fill-rule="evenodd" clip-rule="evenodd" d="M20.1371 15.9177C20.8006 15.9177 22.0317 15 23.6344 15C26.3932 15 27.4783 16.9752 27.4783 16.9752C27.4783 16.9752 25.3558 18.0671 25.3558 20.7169C25.3558 23.7059 28 24.736 28 24.736C28 24.736 26.1516 29.971 23.655 29.971C22.5084 29.971 21.6167 29.1935 20.4087 29.1935C19.1776 29.1935 17.9557 30 17.1599 30C14.88 30 12 25.0342 12 21.0427C12 17.1156 14.4378 15.0554 16.7246 15.0554C18.2105 15.0551 19.364 15.9177 20.1371 15.9177Z" fill="#121212"/>
</svg>
